:FULLY-SPECIFIED
:FORCE-ALL-JOINTS-BE-3DOF
:DEGREES
713
root 5.52514 21.438 7.37328 -90.9457 -85.7959 107.234
lfemur -34.9705 -12.2645 9.99221
ltibia 72.7504 0 0
lfoot 6.16438 -8.23958 0
ltoes 30.8111 0 0
rfemur -31.6375 -1.36279 -0.470377
rtibia 84.8488 0 0
rfoot 20.0427 -19.1026 0
rtoes 38.5306 0 0
lowerback 6.05755 -0.768933 -1.82199
upperback -1.28472 -1.25767 -1.61174
thorax -4.72848 -0.601973 -0.51961
lowerneck -6.82348 -6.16986 -2.20485
upperneck -0.162626 -8.20613 4.85641
head 1.4222 -4.03789 1.61538
lclavicle 1.18608e-14 2.09386e-14 0
lhumerus 1.55586 -20.4443 15.5011
lradius 46.8227 0 0
lwrist 23.9199 0 0
lhand -21.6668 -3.16803 0
lfingers 7.12502 0 0
lthumb 4.73042 26.7578 0
rclavicle 1.18608e-14 2.09386e-14 0
rhumerus -12.4161 -3.54338 -25.8887
rradius 99.3621 0 0
rwrist -9.62022 0 0
rhand -28.4599 -35.7642 0
rfingers 7.12502 0 0
rthumb -1.82986 -785.72 0
714
root 5.50805 21.4837 7.58465 -115.775 -86.5031 132.137
lfemur -34.2638 -13.377 9.25594
ltibia 68.9372 0 0
lfoot 6.79938 -8.84086 0
ltoes 30.3225 0 0
rfemur -32.7362 -1.47482 -1.1946
rtibia 90.9305 0 0
rfoot 20.7031 -19.883 0
rtoes 40.7307 0 0
lowerback 6.02707 -0.661168 -1.79851
upperback -1.30426 -1.11042 -1.58974
thorax -4.73199 -0.529228 -0.525098
lowerneck -6.85298 -6.31082 -2.31894
upperneck -0.298201 -8.38266 4.8781
head 1.39642 -4.12818 1.63531
lclavicle 1.23909e-14 2.63721e-14 0
lhumerus -0.107537 -20.3425 16.062
lradius 45.7374 0 0
lwrist 23.229 0 0
lhand -21.943 -3.26105 0
lfingers 7.12502 0 0
lthumb 4.46379 26.6711 0
rclavicle 1.23909e-14 2.63721e-14 0
rhumerus -11.6357 -2.69361 -26.7223
rradius 99.3092 0 0
rwrist -9.74499 0 0
rhand -27.5073 -34.8396 0
rfingers 7.12502 0 0
rthumb -0.909924 -784.808 0
715
root 5.49097 21.5295 7.79601 -140.605 -87.2103 157.04
lfemur -33.5571 -14.4896 8.51967
ltibia 65.1241 0 0
lfoot 7.43438 -9.44215 0
ltoes 29.8338 0 0
rfemur -33.8349 -1.58686 -1.91882
rtibia 97.0122 0 0
rfoot 21.3635 -20.6634 0
rtoes 42.9309 0 0
lowerback 5.99658 -0.553404 -1.77502
upperback -1.3238 -0.963173 -1.56773
thorax -4.7355 -0.456483 -0.530585
lowerneck -6.88249 -6.45178 -2.43303
upperneck -0.433777 -8.5592 4.89979
head 1.37063 -4.21848 1.65523
lclavicle 1.2921e-14 3.18055e-14 0
lhumerus -1.77093 -20.2407 16.623
lradius 44.6521 0 0
lwrist 22.5382 0 0
lhand -22.2191 -3.35407 0
lfingers 7.12502 0 0
lthumb 4.19717 26.5843 0
rclavicle 1.2921e-14 3.18055e-14 0
rhumerus -10.8552 -1.84384 -27.5558
rradius 99.2563 0 0
rwrist -9.86977 0 0
rhand -26.5547 -33.9151 0
rfingers 7.12502 0 0
rthumb 0.0100137 -783.895 0
716
root 5.45909 21.4804 8.01136 -143.928 -85.3767 160.662
lfemur -32.8749 -15.2628 8.00821
ltibia 61.3216 0 0
lfoot 7.85097 -10.966 0
ltoes 29.2442 0 0
rfemur -33.8909 -2.75163 -2.84418
rtibia 101.458 0 0
rfoot 21.8121 -20.7769 0
rtoes 43.751 0 0
lowerback 5.69874 -0.29349 -1.64406
upperback -1.42149 -0.600844 -1.55158
thorax -4.66652 -0.280113 -0.618666
lowerneck -6.96294 -6.58385 -2.54209
upperneck -0.608701 -8.72241 4.85623
head 1.33751 -4.30318 1.65292
lclavicle 1.08503e-14 2.49143e-14 0
lhumerus -3.76273 -20.1613 17.2279
lradius 44.5704 0 0
lwrist 22.5898 0 0
lhand -22.5094 -3.45189 0
lfingers 7.12502 0 0
lthumb 3.91686 26.4909 0
rclavicle 1.08503e-14 2.49143e-14 0
rhumerus -9.78862 -1.29941 -27.6846
rradius 99.346 0 0
rwrist -10.0919 0 0
rhand -26.0543 -33.1665 0
rfingers 7.12502 0 0
rthumb 0.49334 -783.143 0
